<svg width="24" height="24" viewBox="0 0 24 24" fill="none" xmlns="http://www.w3.org/2000/svg">
<g clip-path="url(#clip0_16_4)">
<path d="M6 2C4.9 2 4.01 2.9 4.01 4L4 20C4 21.1 4.89 22 5.99 22H18C19.1 22 20 21.1 20 20V8L14 2H6ZM13 9V3.5L18.5 9H13Z" fill="black"/>
<path d="M8.80078 14.3125H9.97266V18.25C9.97266 18.612 9.89193 18.9323 9.73047 19.2109C9.57161 19.487 9.34635 19.7005 9.05469 19.8516C8.76302 20.0026 8.43359 20.0781 8.06641 20.0781C7.46484 20.0781 6.99609 19.9258 6.66016 19.6211C6.32422 19.3138 6.15625 18.8802 6.15625 18.3203H7.33594C7.33594 18.599 7.39453 18.8047 7.51172 18.9375C7.62891 19.0703 7.8138 19.1367 8.06641 19.1367C8.29036 19.1367 8.46875 19.0599 8.60156 18.9062C8.73438 18.7526 8.80078 18.5339 8.80078 18.25V14.3125ZM13.9258 18.5078C13.9258 18.2865 13.8477 18.1172 13.6914 18C13.5352 17.8802 13.2539 17.7552 12.8477 17.625C12.4414 17.4922 12.1198 17.362 11.8828 17.2344C11.237 16.8854 10.9141 16.4154 10.9141 15.8242C10.9141 15.5169 11 15.2435 11.1719 15.0039C11.3464 14.7617 11.5951 14.5729 11.918 14.4375C12.2435 14.3021 12.6081 14.2344 13.0117 14.2344C13.418 14.2344 13.7799 14.3086 14.0977 14.457C14.4154 14.6029 14.6615 14.8099 14.8359 15.0781C15.013 15.3464 15.1016 15.651 15.1016 15.9922H13.9297C13.9297 15.7318 13.8477 15.5299 13.6836 15.3867C13.5195 15.2409 13.2891 15.168 12.9922 15.168C12.7057 15.168 12.4831 15.2292 12.3242 15.3516C12.1654 15.4714 12.0859 15.6302 12.0859 15.8281C12.0859 16.013 12.1784 16.168 12.3633 16.293C12.5508 16.418 12.8255 16.5352 13.1875 16.6445C13.8542 16.8451 14.3398 17.0938 14.6445 17.3906C14.9492 17.6875 15.1016 18.0573 15.1016 18.5C15.1016 18.9922 14.9154 19.3789 14.543 19.6602C14.1706 19.9388 13.6693 20.0781 13.0391 20.0781C12.6016 20.0781 12.2031 19.9987 11.8438 19.8398C11.4844 19.6784 11.2096 19.4583 11.0195 19.1797C10.832 18.901 10.7383 18.5781 10.7383 18.2109H11.9141C11.9141 18.8385 12.2891 19.1523 13.0391 19.1523C13.3177 19.1523 13.5352 19.0964 13.6914 18.9844C13.8477 18.8698 13.9258 18.7109 13.9258 18.5078Z" fill="white"/>
</g>
<defs>
<clipPath id="clip0_16_4">
<rect width="24" height="24" fill="white"/>
</clipPath>
</defs>
</svg>
