<svg width="24" height="24" viewBox="0 0 24 24" fill="none" xmlns="http://www.w3.org/2000/svg">
<g clip-path="url(#clip0_16_19)">
<path d="M6 2C4.9 2 4.01 2.9 4.01 4L4 20C4 21.1 4.89 22 5.99 22H18C19.1 22 20 21.1 20 20V8L14 2H6ZM13 9V3.5L18.5 9H13Z" fill="black"/>
<path d="M8.03906 14.3125L9.5 18.4375L10.9531 14.3125H12.4922V20H11.3164V18.4453L11.4336 15.7617L9.89844 20H9.09375L7.5625 15.7656L7.67969 18.4453V20H6.50781V14.3125H8.03906ZM13.5156 20V14.3125H15.2656C15.7656 14.3125 16.2122 14.4258 16.6055 14.6523C17.0013 14.8763 17.3099 15.1966 17.5312 15.6133C17.7526 16.0273 17.8633 16.4987 17.8633 17.0273V17.2891C17.8633 17.8177 17.7539 18.2878 17.5352 18.6992C17.319 19.1107 17.013 19.4297 16.6172 19.6562C16.2214 19.8828 15.7747 19.9974 15.2773 20H13.5156ZM14.6875 15.2617V19.0586H15.2539C15.7122 19.0586 16.0625 18.9089 16.3047 18.6094C16.5469 18.3099 16.6706 17.8815 16.6758 17.3242V17.0234C16.6758 16.4453 16.556 16.0078 16.3164 15.7109C16.0768 15.4115 15.7266 15.2617 15.2656 15.2617H14.6875Z" fill="white"/>
</g>
<defs>
<clipPath id="clip0_16_19">
<rect width="24" height="24" fill="white"/>
</clipPath>
</defs>
</svg>
