<svg width="26" height="59" viewBox="0 0 26 59" fill="none" xmlns="http://www.w3.org/2000/svg">
<path d="M23.5 0.25C24.7426 0.25 25.75 1.25736 25.75 2.5V23.5C25.75 24.7426 24.7426 25.75 23.5 25.75H2.5C1.25736 25.75 0.25 24.7426 0.25 23.5V2.5C0.25 1.25736 1.25736 0.25 2.5 0.25H23.5Z" fill="black" stroke="white" stroke-width="0.5"/>
<path d="M23.5 33.25C24.7426 33.25 25.75 34.2574 25.75 35.5V56.5C25.75 57.7426 24.7426 58.75 23.5 58.75H2.5C1.25736 58.75 0.25 57.7426 0.25 56.5V35.5C0.25 34.2574 1.25736 33.25 2.5 33.25H23.5Z" fill="black" fill-opacity="0.8" stroke="white" stroke-width="0.5"/>
</svg>
